<?xml version="1.0" encoding="utf-8"?>
<!-- Generator: Adobe Illustrator 22.0.0, SVG Export Plug-In . SVG Version: 6.00 Build 0)  -->
<svg version="1.1"
	 id="Layer_1" inkscape:version="0.92.4 (5da689c313, 2019-01-14)" sodipodi:docname="aboutMeBackground.svg" xmlns:cc="http://creativecommons.org/ns#" xmlns:dc="http://purl.org/dc/elements/1.1/" xmlns:inkscape="http://www.inkscape.org/namespaces/inkscape" xmlns:rdf="http://www.w3.org/1999/02/22-rdf-syntax-ns#" xmlns:sodipodi="http://sodipodi.sourceforge.net/DTD/sodipodi-0.dtd" xmlns:svg="http://www.w3.org/2000/svg"
	 xmlns="http://www.w3.org/2000/svg" xmlns:xlink="http://www.w3.org/1999/xlink" x="0px" y="0px" viewBox="0 0 1728 2084.6"
	 style="enable-background:new 0 0 1728 2084.6;" xml:space="preserve">
<style type="text/css">
	.st0{fill:#C8B7B7;}
	.st1{fill:#D45500;}
	.st2{fill:#803300;}
	.st3{fill:#AA4400;}
	.st4{fill:#FF6600;}
</style>
<sodipodi:namedview  bordercolor="#666666" borderopacity="1" gridtolerance="10" guidetolerance="10" id="namedview17" inkscape:current-layer="Layer_1" inkscape:cx="816.50299" inkscape:cy="762.35156" inkscape:pageopacity="0" inkscape:pageshadow="2" inkscape:window-height="984" inkscape:window-maximized="0" inkscape:window-width="1190" inkscape:window-x="114" inkscape:window-y="66" inkscape:zoom="0.38629492" objecttolerance="10" pagecolor="#ffffff" showgrid="false">
	</sodipodi:namedview>
<g>
	<path class="st0" d="M207.3,1200.4h1524.3c47.6,0,86.3-22.9,86.3-51.2v-94.3c0-28.3-38.6-51.2-86.3-51.2H207.3
		c-47.6,0-86.3,22.9-86.3,51.2v94.3C121,1177.5,159.7,1200.4,207.3,1200.4z"/>
	<path class="st0" d="M404.2,2162.5v-966.1c0-28.3-22.9-51.2-51.2-51.2h-94.3c-28.3,0-51.2,22.9-51.2,51.2v966.1
		c0,28.3,22.9,51.2,51.2,51.2H353C381.3,2213.7,404.2,2190.8,404.2,2162.5z"/>
	<path class="st1" d="M342.5,179.8h1173.3c23.7,0,42.9,15.7,42.9,35.1V969c0,19.4-19.2,35.1-42.9,35.1H342.5
		c-23.7,0-42.9-15.7-42.9-35.1V214.9C299.6,195.5,318.8,179.8,342.5,179.8z"/>
	<path class="st2" d="M327.3,938.9H1531c24.3,0,44,1.3,44,2.8v60.5c0,1.6-19.7,2.8-44,2.8H327.3c-24.3,0-44-1.3-44-2.8v-60.5
		C283.3,940.1,303,938.9,327.3,938.9z"/>
	<path class="st3" d="M352.2,218.6h1150.6c8.1,0,14.7,8.1,14.7,18v662.3c0,9.9-6.6,18-14.7,18H352.2c-8.1,0-14.7-8.1-14.7-18V236.5
		C337.6,226.6,344.1,218.6,352.2,218.6z"/>
	<circle class="st4" cx="593.2" cy="410.8" r="132"/>
	<path class="st4" d="M411.2,579h361.6c8.1,0,14.7,8.1,14.7,18v246.2c0,9.9-6.6,18-14.7,18H411.2c-8.1,0-14.7-8.1-14.7-18V597
		C396.5,587.1,403.1,579,411.2,579z"/>
	<path class="st4" d="M875.8,280H1429c12.4,0,22.4,16.7,22.4,37.3v510.5c0,20.6-10,37.3-22.4,37.3H875.8
		c-12.4,0-22.4-16.7-22.4-37.3V317.3C853.4,296.7,863.5,280,875.8,280z"/>
	<path class="st3" d="M445.7,636h292.6c5,0,9,7,9,15.5s-4,15.5-9,15.5H445.7c-5,0-9-7-9-15.5S440.7,636,445.7,636z"/>
	<path class="st3" d="M916,351.2h475.5c8.1,0,14.7,7,14.7,15.5s-6.6,15.5-14.7,15.5H916c-8.1,0-14.7-7-14.7-15.5
		S907.9,351.2,916,351.2z"/>
	<path class="st3" d="M917.3,457.4h475.5c8.1,0,14.7,7,14.7,15.5s-6.6,15.5-14.7,15.5H917.3c-8.1,0-14.7-7-14.7-15.5
		S909.2,457.4,917.3,457.4z"/>
	<path class="st3" d="M919.8,558.3h475.5c8.1,0,14.7,7,14.7,15.5s-6.6,15.5-14.7,15.5H919.8c-8.1,0-14.7-7-14.7-15.5
		S911.7,558.3,919.8,558.3z"/>
	<path class="st3" d="M919.8,659.3h475.5c8.1,0,14.7,7,14.7,15.5s-6.6,15.5-14.7,15.5H919.8c-8.1,0-14.7-7-14.7-15.5
		S911.7,659.3,919.8,659.3z"/>
	<path class="st3" d="M919.8,757.6h475.5c8.1,0,14.7,7,14.7,15.5s-6.6,15.5-14.7,15.5H919.8c-8.1,0-14.7-7-14.7-15.5
		S911.7,757.6,919.8,757.6z"/>
	<path class="st3" d="M444.4,705.9H737c5,0,9,7,9,15.5s-4,15.5-9,15.5H444.4c-5,0-9-7-9-15.5S439.4,705.9,444.4,705.9z"/>
	<path class="st3" d="M444.4,770.6H737c5,0,9,7,9,15.5c0,8.6-4,15.5-9,15.5H444.4c-5,0-9-7-9-15.5
		C435.3,777.5,439.4,770.6,444.4,770.6z"/>
</g>
</svg>
