<?xml version="1.0" encoding="UTF-8" standalone="no"?>
<!-- Generator: Adobe Illustrator 22.0.0, SVG Export Plug-In . SVG Version: 6.00 Build 0)  -->

<svg
   xmlns:dc="http://purl.org/dc/elements/1.1/"
   xmlns:cc="http://creativecommons.org/ns#"
   xmlns:rdf="http://www.w3.org/1999/02/22-rdf-syntax-ns#"
   xmlns:svg="http://www.w3.org/2000/svg"
   xmlns="http://www.w3.org/2000/svg"
   xmlns:sodipodi="http://sodipodi.sourceforge.net/DTD/sodipodi-0.dtd"
   xmlns:inkscape="http://www.inkscape.org/namespaces/inkscape"
   version="1.1"
   id="Layer_1"
   x="0px"
   y="0px"
   viewBox="0 0 1728 2592"
   style="enable-background:new 0 0 1728 2592;"
   xml:space="preserve"
   sodipodi:docname="aboutMeBackground.svg"
   inkscape:version="0.92.4 (5da689c313, 2019-01-14)"><metadata
   id="metadata21"><rdf:RDF><cc:Work
       rdf:about=""><dc:format>image/svg+xml</dc:format><dc:type
         rdf:resource="http://purl.org/dc/dcmitype/StillImage" /><dc:title></dc:title></cc:Work></rdf:RDF></metadata><defs
   id="defs19" /><sodipodi:namedview
   pagecolor="#ffffff"
   bordercolor="#666666"
   borderopacity="1"
   objecttolerance="10"
   gridtolerance="10"
   guidetolerance="10"
   inkscape:pageopacity="0"
   inkscape:pageshadow="2"
   inkscape:window-width="1190"
   inkscape:window-height="984"
   id="namedview17"
   showgrid="false"
   inkscape:zoom="0.38629492"
   inkscape:cx="816.50299"
   inkscape:cy="762.35156"
   inkscape:window-x="114"
   inkscape:window-y="66"
   inkscape:window-maximized="0"
   inkscape:current-layer="Layer_1" />
<style
   type="text/css"
   id="style2">
	.st0{fill:#663300;}
	.st1{fill:#CC6600;}
</style>
<path
   class="st0"
   d="M 271.60566,1704.1686 H 1795.897 c 47.611,0 86.2885,-22.9122 86.2885,-51.1846 v -94.2763 c 0,-28.2723 -38.5724,-51.1845 -86.2885,-51.1845 H 271.60566 c -47.6112,0 -86.2886,22.9122 -86.2886,51.1845 v 94.2763 c 0,28.2724 38.6774,51.1846 86.2886,51.1846 z"
   id="path4"
   inkscape:connector-curvature="0"
   style="fill:#c8b7b7;stroke-width:1.051018" />
<path
   class="st0"
   d="m 468.46136,2666.2704 v -966.0957 c 0,-28.2724 -22.9122,-51.1845 -51.1846,-51.1845 h -94.2763 c -28.2724,0 -51.1846,22.9121 -51.1846,51.1845 v 966.0957 c 0,28.2724 22.9122,51.1845 51.1846,51.1845 h 94.2763 c 28.2724,0 51.1846,-22.9121 51.1846,-51.1845 z"
   id="path6"
   inkscape:connector-curvature="0"
   style="fill:#c8b7b7;stroke-width:1.051018" />




<rect
   style="opacity:1;fill:#d45500;fill-opacity:1;stroke-width:0.53516901"
   id="rect4534"
   width="1258.9716"
   height="824.24384"
   x="363.93222"
   y="683.59662"
   rx="42.855888"
   ry="35.083832" /><rect
   style="opacity:1;fill:#803300;fill-opacity:1;stroke-width:0.15157367"
   id="rect4534-5"
   width="1258.9716"
   height="66.118248"
   x="363.93222"
   y="1442.6375"
   rx="42.855888"
   ry="2.8143146" /><rect
   style="opacity:1;fill:#aa4400;fill-opacity:1;stroke-width:1.00364304"
   id="rect4553"
   width="1179.9398"
   height="698.27356"
   x="401.86356"
   y="722.33691"
   rx="14.667739"
   ry="17.983225" /><circle
   style="opacity:1;fill:#ff6600;fill-opacity:1"
   id="path4555"
   cx="657.52869"
   cy="914.52515"
   r="132.02348" /><rect
   style="opacity:1;fill:#ff6600;fill-opacity:1"
   id="rect4557"
   width="390.89307"
   height="282.16785"
   x="460.78784"
   y="1082.7903"
   rx="14.6677"
   ry="17.9832" /><rect
   style="opacity:1;fill:#ff6600;fill-opacity:1;stroke-width:1.78097773"
   id="rect4557-8"
   width="597.98871"
   height="585.04523"
   x="917.69263"
   y="783.79602"
   rx="22.438667"
   ry="37.286266" /><rect
   style="opacity:1;fill:#aa4400;fill-opacity:1;stroke-width:0.78446454"
   id="rect4574"
   width="310.64346"
   height="31.064348"
   x="500.91263"
   y="1139.7417"
   rx="9.0262766"
   ry="17.9832" /><rect
   style="opacity:1;fill:#aa4400;fill-opacity:1"
   id="rect4574-4"
   width="504.79565"
   height="31.064348"
   x="965.5835"
   y="854.98517"
   rx="14.6677"
   ry="17.9832" /><rect
   style="opacity:1;fill:#aa4400;fill-opacity:1"
   id="rect4574-7"
   width="504.79565"
   height="31.064348"
   x="966.87781"
   y="961.12164"
   rx="14.6677"
   ry="17.9832" /><rect
   style="opacity:1;fill:#aa4400;fill-opacity:1"
   id="rect4574-0"
   width="504.79565"
   height="31.064348"
   x="969.46655"
   y="1062.0808"
   rx="14.6677"
   ry="17.9832" /><rect
   style="opacity:1;fill:#aa4400;fill-opacity:1"
   id="rect4574-1"
   width="504.79565"
   height="31.064348"
   x="969.46655"
   y="1163.04"
   rx="14.6677"
   ry="17.9832" /><rect
   style="opacity:1;fill:#aa4400;fill-opacity:1"
   id="rect4574-72"
   width="504.79565"
   height="31.064348"
   x="969.46655"
   y="1261.4105"
   rx="14.6677"
   ry="17.9832" /><rect
   style="opacity:1;fill:#aa4400;fill-opacity:1;stroke-width:0.78446454"
   id="rect4574-8"
   width="310.64346"
   height="31.064348"
   x="499.61826"
   y="1209.6365"
   rx="9.0262766"
   ry="17.9832" /><rect
   style="opacity:1;fill:#aa4400;fill-opacity:1;stroke-width:0.78446454"
   id="rect4574-3"
   width="310.64346"
   height="31.064348"
   x="499.61826"
   y="1274.3538"
   rx="9.0262766"
   ry="17.9832" /></svg>