<?xml version="1.0" encoding="UTF-8" standalone="no"?>
<!-- Generator: Adobe Illustrator 22.0.0, SVG Export Plug-In . SVG Version: 6.00 Build 0)  -->

<svg
   xmlns:dc="http://purl.org/dc/elements/1.1/"
   xmlns:cc="http://creativecommons.org/ns#"
   xmlns:rdf="http://www.w3.org/1999/02/22-rdf-syntax-ns#"
   xmlns:svg="http://www.w3.org/2000/svg"
   xmlns="http://www.w3.org/2000/svg"
   xmlns:sodipodi="http://sodipodi.sourceforge.net/DTD/sodipodi-0.dtd"
   xmlns:inkscape="http://www.inkscape.org/namespaces/inkscape"
   version="1.1"
   id="Layer_1"
   x="0px"
   y="0px"
   viewBox="0 0 1614.5 1277.3571"
   xml:space="preserve"
   sodipodi:docname="aboutMeBackgroundMobile.svg"
   inkscape:version="0.92.4 (5da689c313, 2019-01-14)"
   width="1614.5"
   height="1277.3571"><metadata
   id="metadata29"><rdf:RDF><cc:Work
       rdf:about=""><dc:format>image/svg+xml</dc:format><dc:type
         rdf:resource="http://purl.org/dc/dcmitype/StillImage" /><dc:title></dc:title></cc:Work></rdf:RDF></metadata><defs
   id="defs27"><path
     d="M 0,0.39 H 121.5 V 90 H 0 Z"
     id="a"
     inkscape:connector-curvature="0" /></defs><sodipodi:namedview
   pagecolor="#ffffff"
   bordercolor="#666666"
   borderopacity="1"
   objecttolerance="10"
   gridtolerance="10"
   guidetolerance="10"
   inkscape:pageopacity="0"
   inkscape:pageshadow="2"
   inkscape:window-width="1986"
   inkscape:window-height="1129"
   id="namedview25"
   showgrid="false"
   inkscape:zoom="0.45139983"
   inkscape:cx="412.80969"
   inkscape:cy="-290.54459"
   inkscape:window-x="-8"
   inkscape:window-y="-8"
   inkscape:window-maximized="1"
   inkscape:current-layer="Layer_1"
   fit-margin-top="0"
   fit-margin-left="0"
   fit-margin-right="0"
   fit-margin-bottom="0" />
<style
   type="text/css"
   id="style2">
	.st0{fill:#CCCCCC;}
	.st1{fill:#FF6600;}
	.st2{fill:#FF9933;}
	.st3{fill:none;}
	.st4{fill:#CC6600;}
	.st5{font-family:'CourierNewPS-BoldMT';}
	.st6{font-size:250px;}
</style>
<path
   class="st0"
   d="m 0,960.17101 v -89.7 c 0,-26.9 39.12277,-48.7 87.282049,-48.7 H 1629.1232 c 48.2656,0 87.282,21.8 87.282,48.7 v 89.7 c 0,26.9 -39.1227,48.69999 -87.282,48.69999 H 87.282049 C 39.12277,1008.871 0,987.07101 0,960.17101 Z"
   id="path4"
   style="fill:#c8b7b7;stroke-width:1.03107655"
   inkscape:connector-curvature="0" />
<path
   class="st0"
   d="M 220.7,1341.6017 H 131 c -26.9,0 -48.7,-8.2609 -48.7,-18.4544 V 974.82544 c 0,-10.19357 21.8,-18.45443 48.7,-18.45443 h 89.7 c 26.9,0 48.7,8.26086 48.7,18.45443 v 348.32186 c 0,10.1935 -21.8,18.4544 -48.7,18.4544 z"
   id="path6"
   style="fill:#c8b7b7;stroke-width:0.61558127"
   inkscape:connector-curvature="0" />









<g
   inkscape:groupmode="layer"
   id="layer1"
   inkscape:label="Layer 1"
   transform="translate(-187.7,-666.32899)"><path
     class="st1"
     d="M 401.38759,666.32899 H 1574.6876 c 23.7,0 42.9,15.7 42.9,35.1 V 1455.529 c 0,19.4 -19.2,35.1 -42.9,35.1 H 401.38759 c -23.7,0 -42.9,-15.7 -42.9,-35.1 V 701.42899 c 0,-19.4 19.2,-35.1 42.9,-35.1 z"
     id="path9"
     inkscape:connector-curvature="0"
     style="fill:#d45500" /><path
     class="st2"
     d="M 386.18759,1425.429 H 1589.8876 c 24.3,0 44,1.3 44,2.8 v 60.5 c 0,1.6 -19.7,2.8 -44,2.8 H 386.18759 c -24.3,0 -44,-1.3 -44,-2.8 v -60.5 c 0,-1.6 19.7,-2.8 44,-2.8 z"
     id="path11"
     inkscape:connector-curvature="0"
     style="fill:#803300" /><path
     class="st3"
     d="M 411.08759,705.12899 H 1561.6876 c 8.1,0 14.7,8.1 14.7,18 V 1385.429 c 0,9.9 -6.6,18 -14.7,18 H 411.08759 c -8.1,0 -14.7,-8.1 -14.7,-18 V 723.02899 c 0.1,-9.9 6.6,-17.9 14.7,-17.9 z"
     id="path13"
     inkscape:connector-curvature="0"
     style="fill:#aa4400" /><circle
     class="st4"
     cx="652.08759"
     cy="897.32892"
     r="132"
     id="circle15"
     style="fill:#ff6600" /><path
     class="st4"
     d="m 470.08759,1065.529 h 361.6 c 8.1,0 14.7,8.1 14.7,18 v 246.2 c 0,9.9 -6.6,18 -14.7,18 h -361.6 c -8.1,0 -14.7,-8.1 -14.7,-18 v -246.2 c 0,-9.9 6.6,-18 14.7,-18 z"
     id="path17"
     inkscape:connector-curvature="0"
     style="fill:#ff6600" /><path
     class="st4"
     d="m 934.68759,766.52899 h 553.20001 c 12.4,0 22.4,16.7 22.4,37.3 V 1314.329 c 0,20.6 -10,37.3 -22.4,37.3 H 934.68759 c -12.4,0 -22.4,-16.7 -22.4,-37.3 V 803.82899 c 0,-20.6 10.1,-37.3 22.4,-37.3 z"
     id="path19"
     inkscape:connector-curvature="0"
     style="fill:#ff6600" /><path
     class="st3"
     d="m 504.58759,1122.529 h 292.6 c 5,0 9,7 9,15.5 0,8.5 -4,15.5 -9,15.5 h -292.6 c -5,0 -9,-7 -9,-15.5 0,-8.5 4,-15.5 9,-15.5 z"
     id="path21"
     inkscape:connector-curvature="0"
     style="fill:#aa4400" /><path
     class="st3"
     d="m 974.88759,837.72899 h 475.50001 c 8.1,0 14.7,7 14.7,15.5 0,8.5 -6.6,15.5 -14.7,15.5 H 974.88759 c -8.1,0 -14.7,-7 -14.7,-15.5 0,-8.5 6.6,-15.5 14.7,-15.5 z"
     id="path23"
     inkscape:connector-curvature="0"
     style="fill:#aa4400" /><path
     class="st3"
     d="m 976.18759,943.92899 h 475.50001 c 8.1,0 14.7,7 14.7,15.5 0,8.5 -6.6,15.5 -14.7,15.5 H 976.18759 c -8.1,0 -14.7,-7 -14.7,-15.5 0,-8.5 6.6,-15.5 14.7,-15.5 z"
     id="path25"
     inkscape:connector-curvature="0"
     style="fill:#aa4400" /><path
     class="st3"
     d="m 978.68759,1044.829 h 475.50001 c 8.1,0 14.7,7 14.7,15.5 0,8.5 -6.6,15.5 -14.7,15.5 H 978.68759 c -8.1,0 -14.7,-7 -14.7,-15.5 0,-8.5 6.6,-15.5 14.7,-15.5 z"
     id="path27"
     inkscape:connector-curvature="0"
     style="fill:#aa4400" /><path
     class="st3"
     d="m 978.68759,1145.829 h 475.50001 c 8.1,0 14.7,7 14.7,15.5 0,8.5 -6.6,15.5 -14.7,15.5 H 978.68759 c -8.1,0 -14.7,-7 -14.7,-15.5 0,-8.5 6.6,-15.5 14.7,-15.5 z"
     id="path29"
     inkscape:connector-curvature="0"
     style="fill:#aa4400" /><path
     class="st3"
     d="m 978.68759,1244.129 h 475.50001 c 8.1,0 14.7,7 14.7,15.5 0,8.5 -6.6,15.5 -14.7,15.5 H 978.68759 c -8.1,0 -14.7,-7 -14.7,-15.5 0,-8.5 6.6,-15.5 14.7,-15.5 z"
     id="path31"
     inkscape:connector-curvature="0"
     style="fill:#aa4400" /><path
     class="st3"
     d="m 503.28759,1192.429 h 292.6 c 5,0 9,7 9,15.5 0,8.5 -4,15.5 -9,15.5 h -292.6 c -5,0 -9,-7 -9,-15.5 0,-8.5 4,-15.5 9,-15.5 z"
     id="path33"
     inkscape:connector-curvature="0"
     style="fill:#aa4400" /><path
     class="st3"
     d="m 503.28759,1257.129 h 292.6 c 5,0 9,7 9,15.5 0,8.6 -4,15.5 -9,15.5 h -292.6 c -5,0 -9,-7 -9,-15.5 -0.1,-8.6 4,-15.5 9,-15.5 z"
     id="path35"
     inkscape:connector-curvature="0"
     style="fill:#aa4400" /></g><g
   inkscape:groupmode="layer"
   id="layer2"
   inkscape:label="Layer 2"
   transform="translate(-187.7,-666.32899)" /></svg>