<?xml version="1.0" encoding="UTF-8" standalone="no"?>
<!-- Generator: Adobe Illustrator 22.0.0, SVG Export Plug-In . SVG Version: 6.00 Build 0)  -->

<svg
   xmlns:dc="http://purl.org/dc/elements/1.1/"
   xmlns:cc="http://creativecommons.org/ns#"
   xmlns:rdf="http://www.w3.org/1999/02/22-rdf-syntax-ns#"
   xmlns:svg="http://www.w3.org/2000/svg"
   xmlns="http://www.w3.org/2000/svg"
   xmlns:sodipodi="http://sodipodi.sourceforge.net/DTD/sodipodi-0.dtd"
   xmlns:inkscape="http://www.inkscape.org/namespaces/inkscape"
   version="1.1"
   id="Layer_1"
   x="0px"
   y="0px"
   viewBox="0 0 1728 2592"
   style="enable-background:new 0 0 1728 2592;"
   xml:space="preserve"
   sodipodi:docname="skillsBackground.svg"
   inkscape:version="0.92.4 (5da689c313, 2019-01-14)"><metadata
   id="metadata29"><rdf:RDF><cc:Work
       rdf:about=""><dc:format>image/svg+xml</dc:format><dc:type
         rdf:resource="http://purl.org/dc/dcmitype/StillImage" /><dc:title></dc:title></cc:Work></rdf:RDF></metadata><defs
   id="defs27"><path
     d="M0 .39h121.5V90H0z"
     id="a" /></defs><sodipodi:namedview
   pagecolor="#ffffff"
   bordercolor="#666666"
   borderopacity="1"
   objecttolerance="10"
   gridtolerance="10"
   guidetolerance="10"
   inkscape:pageopacity="0"
   inkscape:pageshadow="2"
   inkscape:window-width="1986"
   inkscape:window-height="1129"
   id="namedview25"
   showgrid="false"
   inkscape:zoom="0.90279966"
   inkscape:cx="1140.4966"
   inkscape:cy="1485.2697"
   inkscape:window-x="-8"
   inkscape:window-y="-8"
   inkscape:window-maximized="1"
   inkscape:current-layer="layer2" />
<style
   type="text/css"
   id="style2">
	.st0{fill:#CCCCCC;}
	.st1{fill:#FF6600;}
	.st2{fill:#FF9933;}
	.st3{fill:none;}
	.st4{fill:#CC6600;}
	.st5{font-family:'CourierNewPS-BoldMT';}
	.st6{font-size:250px;}
</style>
<path
   class="st0"
   d="M187.7,1626.5v-89.7c0-26.9,36.8-48.7,82.1-48.7h1450.3c45.4,0,82.1,21.8,82.1,48.7v89.7  c0,26.9-36.8,48.7-82.1,48.7H269.8C224.5,1675.2,187.7,1653.4,187.7,1626.5z"
   id="path4"
   style="fill:#c8b7b7" />
<path
   class="st0"
   d="M408.4,2639.3h-89.7c-26.9,0-48.7-21.8-48.7-48.7v-919.2c0-26.9,21.8-48.7,48.7-48.7h89.7  c26.9,0,48.7,21.8,48.7,48.7v919.2C457.1,2617.5,435.3,2639.3,408.4,2639.3z"
   id="path6"
   style="fill:#c8b7b7" />









<g
   inkscape:groupmode="layer"
   id="layer1"
   inkscape:label="Layer 1"><rect
     style="opacity:1;fill:#ff6600;fill-opacity:1;stroke-width:0.94813222"
     id="rect842"
     width="1114.7059"
     height="758.82355"
     x="483.82352"
     y="731.70581"
     rx="14.6677"
     ry="16.166082" /></g><g
   inkscape:groupmode="layer"
   id="layer2"
   inkscape:label="Layer 2"><rect
     style="opacity:1;fill:#aa4400;fill-opacity:1;stroke-width:0.9780612"
     id="rect840"
     width="932.35297"
     height="702.9411"
     x="573.52942"
     y="759.64716"
     rx="14.089882"
     ry="17.90827" /><rect
     style="opacity:1;fill:#aa4400;fill-opacity:1;stroke-width:0.45512065"
     id="rect876"
     width="61.575146"
     height="61.575146"
     x="499.87161"
     y="1083.4884"
     rx="30.787573"
     ry="30.787573" /><rect
     style="opacity:1;fill:#aa4400;fill-opacity:1;stroke-width:0.19664155"
     id="rect876-4"
     width="7.5764537"
     height="93.420525"
     x="1549.7239"
     y="1058.0338"
     rx="1.687916"
     ry="6.7977867" /><g
     id="g901"
     transform="matrix(0.50054911,0,0,0.50054911,1096.7497,832.51282)"
     style="fill:#ff6600">
	<path
   id="path893"
   d="m 666.3,296.5 c 0,-32.5 -40.7,-63.3 -103.1,-82.4 14.4,-63.6 8,-114.2 -20.2,-130.4 -6.5,-3.8 -14.1,-5.6 -22.4,-5.6 v 22.3 c 4.6,0 8.3,0.9 11.4,2.6 13.6,7.8 19.5,37.5 14.9,75.7 -1.1,9.4 -2.9,19.3 -5.1,29.4 -19.6,-4.8 -41,-8.5 -63.5,-10.9 -13.5,-18.5 -27.5,-35.3 -41.6,-50 32.6,-30.3 63.2,-46.9 84,-46.9 V 78 c 0,0 0,0 0,0 -27.5,0 -63.5,19.6 -99.9,53.6 C 384.4,97.8 348.4,78.4 320.9,78.4 v 22.3 c 20.7,0 51.4,16.5 84,46.6 -14,14.7 -28,31.4 -41.3,49.9 -22.6,2.4 -44,6.1 -63.6,11 -2.3,-10 -4,-19.7 -5.2,-29 -4.7,-38.2 1.1,-67.9 14.6,-75.8 3,-1.8 6.9,-2.6 11.5,-2.6 V 78.5 c 0,0 0,0 0,0 -8.4,0 -16,1.8 -22.6,5.6 -28.1,16.2 -34.4,66.7 -19.9,130.1 -62.2,19.2 -102.7,49.9 -102.7,82.3 0,32.5 40.7,63.3 103.1,82.4 -14.4,63.6 -8,114.2 20.2,130.4 6.5,3.8 14.1,5.6 22.5,5.6 27.5,0 63.5,-19.6 99.9,-53.6 36.4,33.8 72.4,53.2 99.9,53.2 8.4,0 16,-1.8 22.6,-5.6 28.1,-16.2 34.4,-66.7 19.9,-130.1 62,-19.1 102.5,-49.9 102.5,-82.3 z M 536.1,229.8 c -3.7,12.9 -8.3,26.2 -13.5,39.5 -4.1,-8 -8.4,-16 -13.1,-24 -4.6,-8 -9.5,-15.8 -14.4,-23.4 14.2,2.1 27.9,4.7 41,7.9 z m -45.8,106.5 c -7.8,13.5 -15.8,26.3 -24.1,38.2 -14.9,1.3 -30,2 -45.2,2 -15.1,0 -30.2,-0.7 -45,-1.9 -8.3,-11.9 -16.4,-24.6 -24.2,-38 -7.6,-13.1 -14.5,-26.4 -20.8,-39.8 6.2,-13.4 13.2,-26.8 20.7,-39.9 7.8,-13.5 15.8,-26.3 24.1,-38.2 14.9,-1.3 30,-2 45.2,-2 15.1,0 30.2,0.7 45,1.9 8.3,11.9 16.4,24.6 24.2,38 7.6,13.1 14.5,26.4 20.8,39.8 -6.3,13.4 -13.2,26.8 -20.7,39.9 z m 32.3,-13 c 5.4,13.4 10,26.8 13.8,39.8 -13.1,3.2 -26.9,5.9 -41.2,8 4.9,-7.7 9.8,-15.6 14.4,-23.7 4.6,-8 8.9,-16.1 13,-24.1 z M 421.2,430 c -9.3,-9.6 -18.6,-20.3 -27.8,-32 9,0.4 18.2,0.7 27.5,0.7 9.4,0 18.7,-0.2 27.8,-0.7 -9,11.7 -18.3,22.4 -27.5,32 z m -74.4,-58.9 c -14.2,-2.1 -27.9,-4.7 -41,-7.9 3.7,-12.9 8.3,-26.2 13.5,-39.5 4.1,8 8.4,16 13.1,24 4.7,8 9.5,15.8 14.4,23.4 z M 420.7,163 c 9.3,9.6 18.6,20.3 27.8,32 -9,-0.4 -18.2,-0.7 -27.5,-0.7 -9.4,0 -18.7,0.2 -27.8,0.7 9,-11.7 18.3,-22.4 27.5,-32 z m -74,58.9 c -4.9,7.7 -9.8,15.6 -14.4,23.7 -4.6,8 -8.9,16 -13,24 -5.4,-13.4 -10,-26.8 -13.8,-39.8 13.1,-3.1 26.9,-5.8 41.2,-7.9 z m -90.5,125.2 c -35.4,-15.1 -58.3,-34.9 -58.3,-50.6 0,-15.7 22.9,-35.6 58.3,-50.6 8.6,-3.7 18,-7 27.7,-10.1 5.7,19.6 13.2,40 22.5,60.9 -9.2,20.8 -16.6,41.1 -22.2,60.6 -9.9,-3.1 -19.3,-6.5 -28,-10.2 z M 310,490 c -13.6,-7.8 -19.5,-37.5 -14.9,-75.7 1.1,-9.4 2.9,-19.3 5.1,-29.4 19.6,4.8 41,8.5 63.5,10.9 13.5,18.5 27.5,35.3 41.6,50 -32.6,30.3 -63.2,46.9 -84,46.9 -4.5,-0.1 -8.3,-1 -11.3,-2.7 z m 237.2,-76.2 c 4.7,38.2 -1.1,67.9 -14.6,75.8 -3,1.8 -6.9,2.6 -11.5,2.6 -20.7,0 -51.4,-16.5 -84,-46.6 14,-14.7 28,-31.4 41.3,-49.9 22.6,-2.4 44,-6.1 63.6,-11 2.3,10.1 4.1,19.8 5.2,29.1 z m 38.5,-66.7 c -8.6,3.7 -18,7 -27.7,10.1 -5.7,-19.6 -13.2,-40 -22.5,-60.9 9.2,-20.8 16.6,-41.1 22.2,-60.6 9.9,3.1 19.3,6.5 28.1,10.2 35.4,15.1 58.3,34.9 58.3,50.6 -0.1,15.7 -23,35.6 -58.4,50.6 z"
   inkscape:connector-curvature="0"
   style="fill:#ff6600" />
	<polygon
   id="polygon895"
   points=""
   style="fill:#ff6600" />
	<circle
   id="circle897"
   r="45.700001"
   cy="296.5"
   cx="420.89999"
   style="fill:#ff6600" />
	<polygon
   id="polygon899"
   points=""
   style="fill:#ff6600" />
</g><g
     id="g940"
     transform="matrix(0.50539745,0,0,0.50539745,649.30707,841.34043)"><path
       id="path917"
       d="m 108.4,0 h 23 v 22.8 h 21.2 V 0 h 23 v 69 h -23 V 46 h -21 V 69 H 108.4 M 206,23 H 185.7 V 0 h 63.7 V 23 H 229 V 69 H 206 M 259.5,0 h 24.1 L 298.4,24.3 313.2,0 h 24.1 v 69 h -23 V 34.8 L 298.2,59.6 282.1,34.8 V 69 H 259.5 M 348.7,0 h 23 v 46.2 h 32.6 V 69 h -55.6"
       inkscape:connector-curvature="0"
       style="fill:#ff6600" /><path
       id="path919"
       d="M 107.6,471 74.6,100.6 H 437.4 L 404.4,470.8 255.7,512"
       inkscape:connector-curvature="0"
       style="fill:#803300" /><path
       id="path921"
       d="M 256,480.5 V 131 H 404.3 L 376,447"
       inkscape:connector-curvature="0"
       style="fill:#aa4400" /><path
       id="path923"
       d="m 142,176.3 h 114 v 45.4 h -64.2 l 4.2,46.5 h 60 v 45.3 H 154.4 m 2,22.8 H 202 l 3.2,36.3 50.8,13.6 v 47.4 l -93.2,-26"
       inkscape:connector-curvature="0"
       style="fill:#ff6600" /><path
       id="path925"
       d="M 369.8,176.3 H 256 v 45.4 h 109.6 m -4.1,46.5 H 256 v 45.4 h 56 l -5.3,59 -50.7,13.6 v 47.2 l 93,-25.8"
       inkscape:connector-curvature="0"
       style="fill:#ff6600" /></g><g
     id="g1000"
     transform="matrix(0.73004172,0,0,0.73004172,924.34487,875.67036)"
     style="fill:#ff6600"><g
       id="g944"
       style="fill:#ff6600">
	<path
   id="path942"
   d="M 145.66,0 C 65.219,0 0,65.219 0,145.66 c 0,80.45 65.219,145.66 145.66,145.66 80.441,0 145.66,-65.21 145.66,-145.66 C 291.319,65.219 226.1,0 145.66,0 Z m 40.802,256.625 c -0.838,-11.398 -1.775,-25.518 -1.83,-31.235 -0.364,-4.388 -0.838,-15.549 -11.434,-22.677 42.068,-3.523 62.087,-26.774 63.526,-57.499 1.202,-17.497 -5.754,-32.883 -18.107,-45.3 0.628,-13.282 -0.401,-29.023 -1.256,-35.941 -9.486,-2.731 -31.608,8.949 -37.79,13.947 -13.037,-5.062 -44.945,-6.837 -64.336,0 C 101.488,68.252 85.839,62.28 77.309,63.946 69.434,81.398 74.496,97.894 76.034,99.86 c -10.142,9.268 -24.289,20.675 -20.447,44.572 6.163,35.04 30.816,53.94 70.508,58.564 -8.466,1.73 -9.896,8.048 -10.606,10.788 -26.656,10.997 -34.275,-6.791 -37.644,-11.425 -11.188,-13.847 -21.23,-9.832 -21.849,-9.614 -0.601,0.218 -1.056,1.092 -0.992,1.511 0.564,2.986 6.655,6.018 6.955,6.263 8.257,6.154 11.316,17.27 13.2,20.438 11.844,19.473 39.374,11.398 39.638,11.562 0.018,1.702 -0.191,16.032 -0.355,27.184 C 64.245,245.992 27.311,200.2 27.311,145.66 c 0,-65.365 52.984,-118.348 118.348,-118.348 65.364,0 118.349,52.983 118.349,118.348 0,51.008 -32.318,94.332 -77.546,110.965 z"
   style="fill:#ff6600"
   inkscape:connector-curvature="0" />
</g><g
       id="g946"
       style="fill:#ff6600">
</g><g
       id="g948"
       style="fill:#ff6600">
</g><g
       id="g950"
       style="fill:#ff6600">
</g><g
       id="g952"
       style="fill:#ff6600">
</g><g
       id="g954"
       style="fill:#ff6600">
</g><g
       id="g956"
       style="fill:#ff6600">
</g><g
       id="g958"
       style="fill:#ff6600">
</g><g
       id="g960"
       style="fill:#ff6600">
</g><g
       id="g962"
       style="fill:#ff6600">
</g><g
       id="g964"
       style="fill:#ff6600">
</g><g
       id="g966"
       style="fill:#ff6600">
</g><g
       id="g968"
       style="fill:#ff6600">
</g><g
       id="g970"
       style="fill:#ff6600">
</g><g
       id="g972"
       style="fill:#ff6600">
</g><g
       id="g974"
       style="fill:#ff6600">
</g></g><path
     id="surface1"
     d="m 863.95246,1163.1573 h -182.6918 a 13.297815,13.297815 0 0 0 -13.2928,13.2928 v 182.6719 a 13.297815,13.297815 0 0 0 13.2928,13.2928 h 182.6719 a 13.292833,13.292833 0 0 0 13.2928,-13.2729 v -182.6918 a 13.292833,13.292833 0 0 0 -13.2729,-13.2928 z m -81.3912,160.351 c 0,19.9094 -11.6786,28.9772 -28.7281,28.9772 -15.4103,0 -26.5258,-10.3333 -31.0598,-19.9293 l 15.6694,-9.4764 c 3.0144,5.3511 7.6081,9.4764 14.2246,9.4764 6.3275,0 9.9646,-2.4712 9.9646,-12.0871 v -62.6477 h 19.9293 z m 43.2266,28.9772 c -17.6523,0 -27.6768,-8.8934 -33.262,-19.9293 l 14.947,-9.9646 c 4.0656,6.6564 8.5048,13.0188 17.8865,13.0188 7.8821,0 12.0074,-3.9311 12.0074,-9.3817 0,-6.497 -4.2848,-8.8187 -12.944,-12.6053 l -4.7482,-2.0428 c -13.7213,-5.8442 -22.8489,-13.1632 -22.8489,-28.6483 0,-14.2494 10.8814,-25.1109 27.8512,-25.1109 12.0871,0 20.7663,4.2051 27.034,15.221 l -14.7925,9.5162 c -3.2684,-5.8592 -6.7759,-8.156 -12.2415,-8.156 -5.5653,0 -9.0878,3.5424 -9.0878,8.156 0,5.6998 3.5225,7.9966 11.6786,11.5391 l 4.7481,2.0427 c 16.1726,6.9105 25.2803,13.9754 25.2803,29.8591 0,17.1043 -13.4523,26.486 -31.5082,26.486 z"
     inkscape:connector-curvature="0"
     style="fill:#ff6600;stroke-width:4.98232126" /><g
     id="g1040"
     transform="matrix(0.43957526,0,0,0.43957526,924.7638,1174.6404)"
     style="fill:#ff6600"><path
       id="path1012"
       d="m 471.4,236 c -19.1,0.1 -35.7,4.7 -49.6,11.5 -5.1,-10.1 -10.2,-19.1 -11.1,-25.7 -1,-7.7 -2.2,-12.4 -1,-21.6 1.2,-9.2 6.6,-22.3 6.5,-23.3 -0.1,-1 -1.2,-5.7 -12.2,-5.8 -11,-0.1 -20.5,2.1 -21.6,5 -1.1,2.9 -3.2,9.5 -4.6,16.3 -1.9,10 -22,45.7 -33.5,64.4 -3.7,-7.3 -6.9,-13.7 -7.6,-18.8 -1,-7.7 -2.2,-12.4 -1,-21.6 1.2,-9.2 6.6,-22.3 6.5,-23.3 -0.1,-1 -1.2,-5.7 -12.2,-5.8 -11,-0.1 -20.5,2.1 -21.6,5 -1.1,2.9 -2.3,9.7 -4.6,16.3 -2.3,6.6 -29,66.2 -36,81.6 -3.6,7.9 -6.7,14.2 -8.9,18.5 0,0 0,0 0,0 0,0 -0.1,0.3 -0.4,0.8 -1.9,3.7 -3,5.7 -3,5.7 0,0 0,0 0,0.1 -1.5,2.7 -3.1,5.2 -3.9,5.2 -0.6,0 -1.7,-7.2 0.2,-17 4,-20.7 13.5,-52.9 13.4,-54 0,-0.6 1.8,-6.2 -6.2,-9.1 -7.8,-2.9 -10.6,1.9 -11.3,1.9 -0.7,0 -1.2,1.7 -1.2,1.7 0,0 8.7,-36.2 -16.6,-36.2 -15.8,0 -37.6,17.3 -48.4,32.9 -6.8,3.7 -21.3,11.6 -36.8,20.1 -5.9,3.3 -12,6.6 -17.7,9.7 -0.4,-0.4 -0.8,-0.9 -1.2,-1.3 C 95.2,236.5 38.6,213.4 41,169.5 c 0.9,-16 6.4,-58 108.7,-109 84.2,-41.5 151.2,-30 162.8,-4.5 16.6,36.4 -35.9,104 -122.9,113.8 -33.2,3.7 -50.6,-9.1 -55,-13.9 -4.6,-5 -5.3,-5.3 -7,-4.3 -2.8,1.5 -1,6 0,8.6 2.6,6.8 13.3,18.8 31.4,24.7 16,5.2 54.9,8.1 102,-10.1 C 313.7,154.4 354.9,97.7 342.8,50.2 330.7,2 250.7,-13.9 175,13 130,29 81.2,54.2 46.1,87 4.4,126 -2.2,159.9 0.5,174.1 c 9.7,50.4 79.2,83.2 107,107.5 -1.4,0.8 -2.7,1.5 -3.8,2.1 -13.9,6.9 -66.9,34.6 -80.1,63.9 -15,33.2 2.4,57 13.9,60.2 35.7,9.9 72.4,-7.9 92.1,-37.3 19.7,-29.4 17.3,-67.6 8.2,-85.1 -0.1,-0.2 -0.2,-0.4 -0.4,-0.6 3.6,-2.1 7.3,-4.3 10.9,-6.4 7.1,-4.2 14.1,-8.1 20.1,-11.3 -3.4,9.3 -5.9,20.4 -7.1,36.4 -1.5,18.8 6.2,43.2 16.3,52.8 4.5,4.2 9.8,4.3 13.2,4.3 11.8,0 17.1,-9.8 23,-21.4 7.2,-14.2 13.7,-30.7 13.7,-30.7 0,0 -8.1,44.6 13.9,44.6 8,0 16.1,-10.4 19.7,-15.7 0,0.1 0,0.1 0,0.1 0,0 0.2,-0.3 0.6,-1 0.8,-1.3 1.3,-2.1 1.3,-2.1 0,0 0,-0.1 0,-0.2 3.2,-5.6 10.4,-18.3 21.1,-39.4 13.8,-27.2 27.1,-61.2 27.1,-61.2 0,0 1.2,8.3 5.3,22.1 2.4,8.1 7.4,17 11.4,25.6 -3.2,4.5 -5.2,7 -5.2,7 0,0 0,0 0.1,0.1 -2.6,3.4 -5.4,7.1 -8.5,10.7 -10.9,13 -23.9,27.9 -25.7,32.2 -2.1,5.1 -1.6,8.8 2.4,11.8 2.9,2.2 8.1,2.5 13.4,2.2 9.8,-0.7 16.7,-3.1 20.1,-4.6 5.3,-1.9 11.5,-4.8 17.3,-9.1 10.7,-7.9 17.2,-19.2 16.6,-34.1 -0.3,-8.2 -3,-16.4 -6.3,-24.1 1,-1.4 1.9,-2.8 2.9,-4.2 16.9,-24.7 30,-51.8 30,-51.8 0,0 1.2,8.3 5.3,22.1 2,7 6.1,14.6 9.7,22 -15.9,12.9 -25.7,27.9 -29.2,37.7 -6.3,18.2 -1.4,26.4 7.9,28.3 4.2,0.9 10.2,-1.1 14.6,-3 5.6,-1.8 12.2,-4.9 18.5,-9.5 10.7,-7.9 21,-18.9 20.4,-33.8 -0.3,-6.8 -2.1,-13.5 -4.6,-20 13.5,-5.6 30.9,-8.7 53.1,-6.1 47.6,5.6 57,35.3 55.2,47.8 -1.8,12.5 -11.8,19.3 -15.1,21.4 -3.3,2.1 -4.4,2.8 -4.1,4.3 0.4,2.2 2,2.1 4.8,1.7 3.9,-0.7 25,-10.1 25.9,-33.1 1.5,-29.4 -26.5,-61.5 -76,-61.2 z M 104.2,359.8 C 88.4,377 66.4,383.5 56.9,378 c -10.2,-5.9 -6.2,-31.3 13.2,-49.5 11.8,-11.1 27,-21.4 37.1,-27.7 2.3,-1.4 5.7,-3.4 9.8,-5.9 0.7,-0.4 1.1,-0.6 1.1,-0.6 v 0 c 0.8,-0.5 1.6,-1 2.4,-1.5 7.1,26 0.3,48.9 -16.3,67 z m 115,-78.2 c -5.5,13.4 -17,47.7 -24,45.8 -6,-1.6 -9.7,-27.6 -1.2,-53.3 4.3,-12.9 13.4,-28.3 18.7,-34.3 8.6,-9.6 18.1,-12.8 20.4,-8.9 2.9,5.1 -10.5,42.3 -13.9,50.7 z m 94.9,45.4 c -2.3,1.2 -4.5,2 -5.5,1.4 -0.7,-0.4 1,-2 1,-2 0,0 11.9,-12.8 16.6,-18.6 2.7,-3.4 5.9,-7.4 9.3,-11.9 0,0.4 0,0.9 0,1.3 0,15.3 -14.8,25.6 -21.4,29.8 z m 73.2,-16.7 c -1.7,-1.2 -1.4,-5.2 4.3,-17.7 2.2,-4.9 7.4,-13.1 16.3,-21 1,3.2 1.7,6.3 1.6,9.2 -0.1,19.3 -13.9,26.5 -22.2,29.5 z"
       inkscape:connector-curvature="0"
       style="fill:#ff6600" /><g
       id="g1014"
       style="fill:#ff6600">
</g><g
       id="g1016"
       style="fill:#ff6600">
</g><g
       id="g1018"
       style="fill:#ff6600">
</g><g
       id="g1020"
       style="fill:#ff6600">
</g><g
       id="g1022"
       style="fill:#ff6600">
</g><g
       id="g1024"
       style="fill:#ff6600">
</g></g><path
     id="path1048"
     clip-path="url(#b)"
     d="m 1415.9064,1266.1331 v 7.646 c -0.073,0.4148 -0.1644,0.822 -0.2122,1.2349 -0.3956,3.326 -0.6518,6.673 -1.1985,9.9742 -1.7853,10.7293 -5.6446,20.7016 -11.3792,29.9227 -8.7088,13.9998 -20.4817,24.6756 -35.2767,31.966 a 82.517665,82.517665 0 0 1 -27.2122,8.0302 c -2.1027,0.2428 -4.2034,0.4607 -6.3061,0.692 h -81.5905 c -0.411,-0.077 -0.82,-0.1988 -1.2348,-0.2236 -8.2272,-0.5181 -16.1427,-2.3933 -23.6874,-5.6944 -16.4255,-7.1873 -28.6726,-18.836 -36.6894,-34.8697 a 68.592368,68.592368 0 0 1 -6.7763,-22.5576 c -0.2312,-1.9096 -0.4568,-3.8173 -0.6843,-5.7249 v -7.4186 c 0.078,-0.4109 0.1988,-0.8219 0.2237,-1.2348 0.4262,-7.128 1.8885,-14.0495 4.4633,-20.7016 6.9292,-17.8993 19.008,-31.1747 36.1733,-39.7669 8.9057,-4.4596 18.3982,-6.803 28.3265,-7.323 4.861,-0.2523 9.7181,0.019 14.5504,0.6671 0.4377,0.059 1.0685,-0.1357 1.3725,-0.4472 6.9483,-7.0974 14.86,-12.8626 23.781,-17.2322 8.6534,-4.2378 17.7598,-6.9694 27.346,-8.0627 2.2555,-0.2581 4.5168,-0.4703 6.7762,-0.7035 h 6.956 c 0.4549,0.071 0.9118,0.151 1.3667,0.2045 3.4465,0.4015 6.912,0.6537 10.3259,1.2253 10.6509,1.7873 20.5659,5.6103 29.7411,11.2894 14.0687,8.7088 24.7903,20.497 32.1152,35.3379 a 82.322692,82.322692 0 0 1 8.0379,27.2313 c 0.2484,2.181 0.4606,4.362 0.6919,6.5392 m -129.8579,-49.4754 c 0.1395,0.1835 0.1739,0.2695 0.2332,0.2982 a 92.923884,92.923884 0 0 1 13.6462,8.2519 c 0.2714,0.1969 0.9443,0.1147 1.273,-0.092 11.8284,-7.495 24.6508,-10.0813 38.4251,-7.6384 13.4971,2.3932 24.4806,9.137 32.8721,19.9083 9.5021,12.1897 13.1244,25.9736 10.5018,41.3095 -1.7586,10.2782 -5.8759,19.4993 -12.874,27.2237 -12.7688,14.082 -28.7585,19.9063 -47.5811,17.4405 -11.5875,-1.5177 -21.5905,-6.5163 -29.8692,-14.883 -10.626,-10.733 -21.3208,-21.3954 -31.9775,-32.0998 -1.4202,-1.426 -3.001,-2.5729 -5.0464,-2.8233 -3.5726,-0.4377 -6.8144,1.3457 -8.357,4.5551 -1.3763,2.8653 -1.1986,6.0957 1.7872,9.0319 11.88,11.662 23.6549,23.4311 35.5215,35.1047 a 57.354643,57.354643 0 0 0 6.5163,5.5452 c 8.6686,6.2946 18.4422,9.7755 29.0262,11.1766 8.3073,1.0972 16.5497,0.8621 24.729,-0.9768 15.6017,-3.5037 28.5254,-11.4671 38.7042,-23.7542 8.4049,-10.1539 13.4875,-21.8217 15.2595,-34.9213 a 68.450915,68.450915 0 0 0 -0.6346,-22.4582 c -2.3607,-12.0998 -7.4797,-22.9266 -15.682,-32.1419 -15.6494,-17.5725 -35.3379,-25.4173 -58.7672,-23.6663 -9.0128,0.6728 -17.5381,3.3202 -25.5607,7.5198 a 67.447376,67.447376 0 0 0 -12.1456,8.0895 m -5.7326,122.6726 a 151.74274,151.74274 0 0 1 -0.9634,-0.9003 c -4.8571,-4.5857 -9.741,-9.1427 -14.5408,-13.7877 -0.929,-0.8984 -1.7834,-1.3361 -3.0986,-1.3056 -4.8609,0.1186 -9.7257,0.1396 -14.5159,-0.9423 -23.8174,-5.3867 -37.6471,-31.2817 -28.8694,-54.0669 6.9234,-17.9662 26.09,-28.9077 44.991,-25.5338 8.4718,1.512 15.9075,5.0979 22.011,11.3925 7.4433,7.6843 15.1084,15.1487 22.6321,22.7546 1.7127,1.7318 3.6797,2.5212 6.0518,2.1829 3.0661,-0.4377 5.5071,-1.8982 6.6158,-4.9049 1.0857,-2.959 0.56,-5.7613 -1.6802,-8.0302 -7.8965,-7.9997 -15.6055,-16.2 -23.8212,-23.8594 -15.9343,-14.862 -34.7243,-19.2813 -55.5062,-12.962 -27.9519,8.4929 -44.3106,37.3565 -37.9242,65.838 5.8205,25.9505 28.5158,44.1633 55.0723,44.1863 7.4147,0.01 14.8313,0.01 22.2461,0 0.3669,0 0.734,-0.033 1.2998,-0.061"
     inkscape:connector-curvature="0"
     style="fill:#ff6600;stroke-width:1.91150284" /></g></svg>