<?xml version="1.0" encoding="UTF-8" standalone="no"?>
<!-- Generator: Adobe Illustrator 22.0.0, SVG Export Plug-In . SVG Version: 6.00 Build 0)  -->

<svg
   xmlns:dc="http://purl.org/dc/elements/1.1/"
   xmlns:cc="http://creativecommons.org/ns#"
   xmlns:rdf="http://www.w3.org/1999/02/22-rdf-syntax-ns#"
   xmlns:svg="http://www.w3.org/2000/svg"
   xmlns="http://www.w3.org/2000/svg"
   xmlns:sodipodi="http://sodipodi.sourceforge.net/DTD/sodipodi-0.dtd"
   xmlns:inkscape="http://www.inkscape.org/namespaces/inkscape"
   version="1.1"
   id="Layer_1"
   x="0px"
   y="0px"
   viewBox="0 0 1614.5 1277.3571"
   xml:space="preserve"
   sodipodi:docname="splashBackgroundMobile.svg"
   inkscape:version="0.92.4 (5da689c313, 2019-01-14)"
   width="1614.5"
   height="1277.3571"><metadata
   id="metadata29"><rdf:RDF><cc:Work
       rdf:about=""><dc:format>image/svg+xml</dc:format><dc:type
         rdf:resource="http://purl.org/dc/dcmitype/StillImage" /><dc:title></dc:title></cc:Work></rdf:RDF></metadata><defs
   id="defs27"><path
     d="M 0,0.39 H 121.5 V 90 H 0 Z"
     id="a"
     inkscape:connector-curvature="0" /></defs><sodipodi:namedview
   pagecolor="#ffffff"
   bordercolor="#666666"
   borderopacity="1"
   objecttolerance="10"
   gridtolerance="10"
   guidetolerance="10"
   inkscape:pageopacity="0"
   inkscape:pageshadow="2"
   inkscape:window-width="1986"
   inkscape:window-height="1129"
   id="namedview25"
   showgrid="false"
   inkscape:zoom="0.45139983"
   inkscape:cx="52.818416"
   inkscape:cy="764.27044"
   inkscape:window-x="-8"
   inkscape:window-y="-8"
   inkscape:window-maximized="1"
   inkscape:current-layer="layer1"
   fit-margin-top="0"
   fit-margin-left="0"
   fit-margin-right="0"
   fit-margin-bottom="0" />
<style
   type="text/css"
   id="style2">
	.st0{fill:#CCCCCC;}
	.st1{fill:#FF6600;}
	.st2{fill:#FF9933;}
	.st3{fill:none;}
	.st4{fill:#CC6600;}
	.st5{font-family:'CourierNewPS-BoldMT';}
	.st6{font-size:250px;}
</style>
<path
   class="st0"
   d="m 0,960.17101 v -89.7 c 0,-26.9 39.12277,-48.7 87.282049,-48.7 H 1629.1232 c 48.2656,0 87.282,21.8 87.282,48.7 v 89.7 c 0,26.9 -39.1227,48.69999 -87.282,48.69999 H 87.282049 C 39.12277,1008.871 0,987.07101 0,960.17101 Z"
   id="path4"
   style="fill:#c8b7b7;stroke-width:1.03107655"
   inkscape:connector-curvature="0" />
<path
   class="st0"
   d="M 220.7,1341.6017 H 131 c -26.9,0 -48.7,-8.2609 -48.7,-18.4544 V 974.82544 c 0,-10.19357 21.8,-18.45443 48.7,-18.45443 h 89.7 c 26.9,0 48.7,8.26086 48.7,18.45443 v 348.32186 c 0,10.1935 -21.8,18.4544 -48.7,18.4544 z"
   id="path6"
   style="fill:#c8b7b7;stroke-width:0.61558127"
   inkscape:connector-curvature="0" />









<g
   inkscape:groupmode="layer"
   id="layer1"
   inkscape:label="Layer 1"
   transform="translate(-187.7,-666.32899)"><path
     class="st1"
     d="M 1202.8864,864.03154 H 699.08637 c -20.4,0 -37,16.6 -37,37 v 552.29996 c 0,20.4 16.6,37 37,37 h 503.80003 c 20.4,0 37,-16.6 37,-37 V 901.03154 c 0,-20.4 -16.5,-37 -37,-37 z"
     id="path8"
     inkscape:connector-curvature="0"
     style="fill:#ff6600" /><path
     class="st1"
     d="m 1435.2864,947.53154 h -200.2 c -20.4,0 -37,16.6 -37,37 v 34.19996 c 0,20.4 16.6,37 37,37 h 200.2 c 20.4,0 37,-16.6 37,-37 v -34.19996 c 0,-20.4 -16.6,-37 -37,-37 z"
     id="path10"
     inkscape:connector-curvature="0"
     style="fill:#ff6600" /><path
     class="st1"
     d="m 1435.2864,1298.5315 h -200.2 c -20.4,0 -37,16.6 -37,37 v 34.2 c 0,20.4 16.6,37 37,37 h 200.2 c 20.4,0 37,-16.6 37,-37 v -34.2 c 0,-20.4 -16.6,-37 -37,-37 z"
     id="path12"
     inkscape:connector-curvature="0"
     style="fill:#ff6600" /><path
     class="st1"
     d="m 1472.2864,1325.9315 v -301.3 c 0,-20.4 -16.6,-36.99996 -37,-36.99996 h -34.2 c -20.4,0 -37,16.59996 -37,36.99996 v 301.3 c 0,20.4 16.6,37 37,37 h 34.2 c 20.4,0 37,-16.6 37,-37 z"
     id="path14"
     inkscape:connector-curvature="0"
     style="fill:#ff6600" /><path
     class="st2"
     d="m 950.98637,1380.7315 v 0 c -112.4,0 -203.6,-91.1 -203.6,-203.6 v 0 c 0,-112.4 91.1,-203.59996 203.6,-203.59996 v 0 c 112.40003,0 203.60003,91.09996 203.60003,203.59996 v 0 c 0,112.5 -91.1,203.6 -203.60003,203.6 z"
     id="path16"
     style="fill:#803300"
     inkscape:connector-curvature="0" /><rect
     x="803.98639"
     y="1084.7316"
     class="st3"
     width="314.60001"
     height="224.89999"
     id="rect18"
     style="fill:none" /><text
     class="st4 st5 st6"
     id="text20"
     style="font-size:250px;font-family:CourierNewPS-BoldMT;fill:#ff6600"
     x="803.98511"
     y="1242.9795"><tspan
       style="font-style:normal;font-variant:normal;font-weight:bold;font-stretch:normal;font-family:'Courier New';-inkscape-font-specification:'Courier New Bold';fill:#ff6600"
       id="tspan825">AF</tspan></text>
<polygon
     class="st3"
     points="715.7,1194.9 707.4,1194.9 "
     id="polygon22"
     style="fill:none"
     transform="translate(75.986385,2.2315433)" /></g><g
   inkscape:groupmode="layer"
   id="layer2"
   inkscape:label="Layer 2"
   transform="translate(-187.7,-666.32899)" /></svg>