<?xml version="1.0" encoding="utf-8"?>
<!-- Generator: Adobe Illustrator 22.0.0, SVG Export Plug-In . SVG Version: 6.00 Build 0)  -->
<svg version="1.1" id="Layer_1" xmlns="http://www.w3.org/2000/svg" xmlns:xlink="http://www.w3.org/1999/xlink" x="0px" y="0px"
	 viewBox="0 0 1728 2592" style="enable-background:new 0 0 1728 2592;" xml:space="preserve">
<style type="text/css">
	.st0{fill:#663300;}
	.st1{fill:#CC6600;}
</style>
<path class="st0" d="M1377.5,1683.4H-72.8c-45.3,0-82.1-21.8-82.1-48.7V1545c0-26.9,36.7-48.7,82.1-48.7h1450.3
	c45.3,0,82.1,21.8,82.1,48.7v89.7C1459.6,1661.6,1422.8,1683.4,1377.5,1683.4z"/>
<path class="st0" d="M1190.2,2598.8v-919.2c0-26.9,21.8-48.7,48.7-48.7h89.7c26.9,0,48.7,21.8,48.7,48.7v919.2
	c0,26.9-21.8,48.7-48.7,48.7h-89.7C1212,2647.5,1190.2,2625.7,1190.2,2598.8z"/>
<path class="st1" d="M1089.9,1496.2H593.1c-32.9,0-59.4-27.1-59.4-60.6V866.5c0-33.5,26.5-60.6,59.4-60.6h496.8
	c32.9,0,59.4,27.1,59.4,60.6v569.1C1149.4,1469.1,1122.7,1496.2,1089.9,1496.2z"/>
<path class="st1" d="M1308.8,1045.4h-237.4c-19,0-34.3-15.6-34.3-34.9v-31.1c0-19.3,15.3-34.9,34.3-34.9h237.4
	c19,0,34.3,15.6,34.3,34.9v31.1C1343.2,1029.8,1327.8,1045.4,1308.8,1045.4z"/>
<path class="st1" d="M1301.5,1372.5h-222.7c-23,0-41.7-19-41.7-42.5v-10.7c0-23.5,18.7-42.5,41.7-42.5h222.7c23,0,41.7,19,41.7,42.5
	v10.7C1343.2,1353.4,1324.5,1372.5,1301.5,1372.5z"/>
<path class="st1" d="M1251.4,1307.2v-297.7c0-15.2,12.1-27.5,27-27.5h37.8c14.9,0,27,12.3,27,27.5v297.7c0,15.2-12.1,27.5-27,27.5
	h-37.8C1263.4,1334.7,1251.4,1322.3,1251.4,1307.2z"/>
</svg>
