<?xml version="1.0" encoding="utf-8"?>
<!-- Generator: Adobe Illustrator 22.0.0, SVG Export Plug-In . SVG Version: 6.00 Build 0)  -->
<svg version="1.1" id="Layer_1" xmlns="http://www.w3.org/2000/svg" xmlns:xlink="http://www.w3.org/1999/xlink" x="0px" y="0px"
	 viewBox="0 0 1728 2592" style="enable-background:new 0 0 1728 2592;" xml:space="preserve">
<style type="text/css">
	.st0{fill:#663300;stroke:#000000;stroke-miterlimit:10;}
	.st1{fill:#663300;}
	.st2{fill:#CC6600;}
</style>
<path class="st0" d="M845,1683.4H-15.4c-26.9,0-48.7-21.8-48.7-48.7v-89.7c0-26.9,21.8-48.7,48.7-48.7H845
	c26.9,0,48.7,21.8,48.7,48.7v89.7C893.7,1661.6,871.9,1683.4,845,1683.4z"/>
<path class="st1" d="M624.3,2598.8v-919.2c0-26.9,21.8-48.7,48.7-48.7h89.7c26.9,0,48.7,21.8,48.7,48.7v919.2
	c0,26.9-21.8,48.7-48.7,48.7h-89.7C646.1,2647.5,624.3,2625.7,624.3,2598.8z"/>
<path class="st2" d="M608.9,1496.2H255.1c-23.4,0-42.3-18.9-42.3-42.3v-397.4c0-23.4,18.9-42.3,42.3-42.3h353.8
	c23.4,0,42.3,18.9,42.3,42.3v397.4C651.3,1477.3,632.3,1496.2,608.9,1496.2z"/>
<path class="st2" d="M798.6,1181.5H629.5c-13.5,0-24.4-10.9-24.4-24.4v-21.7c0-13.5,10.9-24.4,24.4-24.4h169.1
	c13.5,0,24.4,10.9,24.4,24.4v21.7C823.1,1170.6,812.1,1181.5,798.6,1181.5z"/>
<path class="st2" d="M793.4,1409.9H634.8c-16.4,0-29.7-13.3-29.7-29.7v-7.5c0-16.4,13.3-29.7,29.7-29.7h158.6
	c16.4,0,29.7,13.3,29.7,29.7v7.5C823.1,1396.6,809.8,1409.9,793.4,1409.9z"/>
<path class="st2" d="M757.7,1364.3v-207.9c0-10.6,8.6-19.2,19.2-19.2h26.9c10.6,0,19.2,8.6,19.2,19.2v207.9
	c0,10.6-8.6,19.2-19.2,19.2h-26.9C766.3,1383.5,757.7,1374.9,757.7,1364.3z"/>
</svg>
